<?xml version="1.0" encoding="UTF-8" standalone="no"?>
<!-- Created with Inkscape (http://www.inkscape.org/) -->

<svg
   width="127.26458mm"
   height="81.756248mm"
   viewBox="0 0 127.26458 81.756248"
   version="1.1"
   id="svg1"
   xml:space="preserve"
   inkscape:version="1.3.2 (091e20e, 2023-11-25)"
   sodipodi:docname="vst_compatible.svg"
   xmlns:inkscape="http://www.inkscape.org/namespaces/inkscape"
   xmlns:sodipodi="http://sodipodi.sourceforge.net/DTD/sodipodi-0.dtd"
   xmlns="http://www.w3.org/2000/svg"
   xmlns:svg="http://www.w3.org/2000/svg"><sodipodi:namedview
     id="namedview1"
     pagecolor="#ffffff"
     bordercolor="#000000"
     borderopacity="0.25"
     inkscape:showpageshadow="2"
     inkscape:pageopacity="0.0"
     inkscape:pagecheckerboard="0"
     inkscape:deskcolor="#d1d1d1"
     inkscape:document-units="mm"
     inkscape:zoom="1.1278158"
     inkscape:cx="131.67044"
     inkscape:cy="173.34391"
     inkscape:window-width="1712"
     inkscape:window-height="1040"
     inkscape:window-x="0"
     inkscape:window-y="39"
     inkscape:window-maximized="1"
     inkscape:current-layer="layer1" /><defs
     id="defs1" /><g
     inkscape:label="Layer 1"
     inkscape:groupmode="layer"
     id="layer1"
     transform="translate(-41.36771,-107.62187)"><g
       id="g10"
       transform="translate(-5.2006605,-37.535705)"><path
         style="fill:#f8f8f8"
         d="m 46.568371,186.0357 v -40.87812 h 63.632289 63.63229 v 40.87812 40.87813 H 110.20066 46.568371 Z m 125.677079,0 V 146.48049 H 110.20066 48.155871 v 39.55521 39.55521 h 62.044789 62.04479 z M 62.26881,213.17656 c -2.470281,-0.6177 -4.029853,-2.60583 -4.256211,-5.42577 -0.18235,-2.27171 0.279855,-3.83884 1.561721,-5.29512 1.242856,-1.41196 2.374424,-1.82873 4.583252,-1.68809 1.949202,0.12412 3.223539,0.92121 3.962554,2.47857 0.527933,1.11254 0.392352,1.33157 -0.980402,1.58382 -0.791884,0.14552 -0.992187,0.10101 -0.992187,-0.22047 0,-0.22154 -0.366323,-0.71104 -0.81405,-1.08778 -1.177818,-0.99107 -2.374329,-0.92231 -3.606915,0.20727 -0.899891,0.82469 -0.982078,1.02523 -1.085441,2.64851 -0.130044,2.0423 0.208457,3.06345 1.327691,4.00523 1.321982,1.11237 3.404196,0.69253 4.179308,-0.84269 0.208315,-0.41259 0.397603,-0.78492 0.420639,-0.82739 0.0612,-0.11283 2.224601,0.7749 2.224601,0.91284 0,0.70078 -1.687613,2.64891 -2.778125,3.20698 -0.779895,0.39911 -2.788608,0.58359 -3.746435,0.34409 z m 11.77085,-0.16359 c -1.54326,-0.48763 -3.184484,-2.26446 -3.65983,-3.96223 -0.658013,-2.3502 0.07947,-5.48029 1.632548,-6.92897 1.608212,-1.50012 4.573195,-1.85351 6.595106,-0.78607 2.322881,1.22634 3.513166,4.16799 2.893769,7.15161 -0.746209,3.59447 -4.055766,5.60181 -7.461593,4.52566 z m 3.346717,-2.28416 c 1.427717,-0.65051 2.25568,-3.01361 1.734297,-4.94988 -0.926328,-3.44012 -4.775261,-4.0006 -6.148843,-0.89539 -0.904243,2.04419 -0.252256,4.89074 1.314969,5.74111 0.881014,0.47803 2.182992,0.52179 3.099577,0.10416 z m 6.223659,-3.79103 v -5.95312 h 1.690807 1.690806 l 0.577942,2.18281 c 0.317869,1.20055 0.829545,3.11907 1.13706,4.26337 l 0.559118,2.08056 1.087313,-4.19722 1.087314,-4.19723 1.64107,-0.0788 1.64107,-0.0788 v 5.96575 5.96575 H 93.664203 92.60587 l -0.02345,-4.16719 -0.02345,-4.16719 -1.101028,4.16685 -1.101028,4.16685 -1.106649,3.4e-4 c -0.824452,2.5e-4 -1.142328,-0.11773 -1.246562,-0.46268 -0.07695,-0.25466 -0.573881,-2.1299 -1.104289,-4.16719 -0.530407,-2.03729 -1.027784,-3.7637 -1.105281,-3.83646 -0.0775,-0.0728 -0.06446,1.80248 0.02898,4.16719 l 0.169887,4.29948 h -1.191481 -1.191482 z m 14.552083,0 v -5.95312 l 2.976561,4.1e-4 c 4.32868,6e-4 5.72297,0.88085 5.95402,3.75893 0.21223,2.64375 -1.53596,4.17701 -4.76339,4.17775 l -1.78594,4.1e-4 v 1.98437 1.98438 h -1.190626 -1.190625 z m 5.271081,-0.16476 c 0.97788,-0.34089 1.44666,-1.27677 1.20063,-2.39694 -0.21512,-0.97943 -0.8216,-1.27475 -2.61786,-1.27475 h -1.4726 v 1.98437 1.98438 h 1.01885 c 0.56037,0 1.40231,-0.13368 1.87098,-0.29706 z m 3.72475,5.90073 c 0,-0.13539 0.87823,-2.79105 1.95161,-5.90148 l 1.95161,-5.65532 1.32251,-0.0788 c 1.07039,-0.0638 1.35971,0.0119 1.51763,0.39687 0.23542,0.57395 3.83998,11.27239 3.83998,11.39718 0,0.0482 -0.55555,0.0514 -1.23454,0.007 -1.14914,-0.0751 -1.25601,-0.1447 -1.54496,-1.00668 l -0.31042,-0.92605 h -2.20175 -2.20175 l -0.31042,0.92605 c -0.28895,0.86198 -0.39582,0.93162 -1.54496,1.00668 -0.679,0.0444 -1.23454,-0.0301 -1.23454,-0.16551 z m 6.46609,-5.27294 c -0.21327,-0.69123 -0.51937,-1.76279 -0.68021,-2.38125 -0.16085,-0.61847 -0.38324,-1.12448 -0.49421,-1.12448 -0.11097,0 -0.33336,0.50601 -0.49421,1.12448 -0.16084,0.61846 -0.46694,1.69002 -0.68021,2.38125 l -0.38777,1.25677 h 1.56219 1.56219 z m 6.4985,0.59531 v -4.89479 h -1.5875 -1.5875 v -1.05834 -1.05833 h 4.36562 4.36563 v 1.05833 1.05834 h -1.5875 -1.5875 v 4.89479 4.89479 h -1.19063 -1.19062 z m 7.14375,-1.05834 v -5.95312 h 1.19062 1.19063 v 5.95312 5.95313 h -1.19063 -1.19062 z m 5.82083,0 v -5.95312 l 3.37344,9.9e-4 c 2.83358,8.3e-4 3.50383,0.0805 4.18827,0.49787 1.58942,0.96923 1.85603,3.42065 0.48897,4.49599 -0.65137,0.51237 -0.65288,0.5224 -0.1042,0.69654 1.36009,0.43168 2.02806,3.12323 1.14578,4.61682 -0.8188,1.38613 -1.54749,1.59804 -5.49506,1.59804 h -3.5972 z m 6.59515,3.45718 c 0.75004,-0.67879 0.68996,-1.58778 -0.14854,-2.24735 -0.55152,-0.43382 -1.07657,-0.54837 -2.51354,-0.54837 h -1.8164 v 1.54341 c 0,0.84887 0.0893,1.63392 0.19843,1.74455 0.10914,0.11063 0.99337,0.15684 1.96494,0.10269 1.25361,-0.0699 1.92579,-0.24261 2.31511,-0.59493 z m -0.95992,-4.89212 c 1.20467,-0.45801 1.2253,-1.81938 0.0358,-2.36136 -0.36785,-0.16761 -1.31806,-0.30474 -2.11158,-0.30474 h -1.44275 v 1.45521 1.45521 h 1.43798 c 0.79089,0 1.72715,-0.10994 2.08058,-0.24432 z m 6.5356,1.43494 v -5.95312 h 1.19063 1.19062 v 4.89479 4.89479 h 2.38125 2.38125 v 1.05834 1.05833 h -3.57187 -3.57188 z m 8.46667,0 v -5.95312 h 4.36562 4.36563 v 1.05833 1.05834 h -3.175 -3.175 v 1.32291 1.32292 h 2.91041 2.91042 v 1.05833 1.05834 h -2.91042 -2.91041 v 1.4552 1.45521 h 3.30729 3.30729 v 1.05834 1.05833 h -4.49792 -4.49791 z M 69.980641,180.42756 C 58.97159,167.55563 59.718157,168.24979 56.60269,167.9886 c -1.552888,-0.13019 -1.832236,-0.22843 -1.832236,-0.6444 0,-0.4703 0.469461,-0.49079 11.244791,-0.49079 11.068403,0 11.244792,0.008 11.244792,0.52917 0,0.47381 -0.186824,0.53244 -1.785938,0.56047 -2.752884,0.0482 -3.358619,0.23959 -3.456922,1.09199 -0.06943,0.602 0.773381,1.77265 5.004731,6.95151 2.798519,3.42518 5.181378,6.19448 5.295242,6.154 0.203941,-0.0725 8.349054,-10.53495 9.132977,-11.73137 1.034179,-1.57836 -0.169981,-2.45542 -3.40832,-2.4825 -1.604571,-0.0134 -1.785937,-0.0687 -1.785937,-0.5441 0,-0.51634 0.176389,-0.52917 7.276041,-0.52917 7.099649,0 7.276039,0.0128 7.276039,0.52917 0,0.42693 -0.17639,0.52916 -0.913016,0.52916 -1.937207,0 -3.642885,0.56397 -4.695996,1.55268 -0.562895,0.52848 -4.332159,5.24712 -8.37614,10.48587 -6.555686,8.49252 -7.440151,9.53371 -8.159512,9.6054 -0.761386,0.0759 -1.250301,-0.43813 -8.682645,-9.12813 z m 60.989809,7.89439 v -0.75645 l 2.23952,-0.13972 c 1.52472,-0.0951 2.51699,-0.30174 3.10886,-0.64735 l 0.86933,-0.50763 0.0695,-9.41932 0.0695,-9.41932 -2.11998,0.14531 -2.11998,0.1453 v -0.83155 -0.83156 h 14.79002 14.79003 l 0.18937,3.2833 c 0.10416,1.80582 0.10912,3.41316 0.011,3.57188 -0.0981,0.15871 -0.56996,0.28857 -1.04859,0.28857 -0.76223,0 -0.93068,-0.13402 -1.35712,-1.0797 -1.07314,-2.37978 -3.95066,-3.97235 -7.83858,-4.33826 -0.92223,-0.0868 -2.30187,-0.22152 -3.06585,-0.29938 l -1.38906,-0.14157 v 9.16456 c 0,6.05887 0.0969,9.34557 0.28588,9.69873 0.454,0.84831 1.87845,1.28312 4.20354,1.28312 h 2.12516 v 0.79375 0.79375 h -11.9063 -11.90625 z m -39.15833,-4.6675 v -5.15937 h 0.760677 c 1.752384,0 2.26047,0.27035 3.075781,1.63665 1.78651,2.99382 5.315082,5.3622 9.789582,6.57076 1.65678,0.4475 3.15514,0.60204 6.89632,0.71129 4.23592,0.12369 5.02352,0.0779 6.92334,-0.40252 2.25364,-0.5699 4.00103,-1.53163 4.68812,-2.58027 0.65246,-0.99577 0.52183,-2.31227 -0.31218,-3.14628 -1.37455,-1.37455 -2.33239,-1.69298 -11.97789,-3.98194 -4.00182,-0.94967 -8.28807,-2.0331 -9.525,-2.40761 -2.54299,-0.76996 -6.153315,-2.39636 -7.143751,-3.21814 l -0.661458,-0.54883 0.765411,-0.80227 c 1.096263,-1.14905 2.138342,-1.56179 4.478553,-1.77386 l 2.058815,-0.18656 -0.0795,-1.08677 -0.0795,-1.08678 -4.101041,-0.13229 -4.101041,-0.13229 1.470178,-1.45984 c 2.467053,-2.4497 6.136414,-3.89816 11.439274,-4.51557 3.66926,-0.42721 12.01605,-0.15641 16.4593,0.534 4.63225,0.71978 5.4597,0.70501 6.43404,-0.11484 0.58949,-0.49602 1.09087,-0.66146 2.00467,-0.66146 h 1.21858 v 4.36563 4.36562 h -1.02846 c -0.92317,0 -1.2279,-0.19782 -2.97656,-1.93224 -1.07146,-1.06274 -2.63817,-2.31699 -3.48159,-2.78723 -5.74969,-3.20573 -15.16716,-3.84681 -20.03426,-1.3638 -2.6285,1.34096 -2.54613,4.00076 0.16335,5.27436 1.36185,0.64015 6.74598,2.06996 14.9221,3.96271 8.27461,1.91556 11.00753,2.94035 13.25412,4.97001 1.39258,1.25812 1.82713,2.14513 1.82713,3.7296 0,1.57651 -0.87627,2.92858 -2.81295,4.34034 -3.01152,2.19527 -6.59155,3.35469 -12.11646,3.92398 -4.46714,0.4603 -14.13217,0.18233 -18.1435,-0.52181 -4.177138,-0.73325 -5.317882,-0.71233 -6.301752,0.11554 -0.633911,0.5334 -1.073236,0.66146 -2.269258,0.66146 h -1.48316 z m 31.81614,-11.80538 -0.85989,-0.24829 v -2.77056 -2.77056 h 2.21817 2.21817 l 0.95683,1.0591 c 1.12238,1.24233 1.16947,1.476 0.33947,1.68432 -0.78816,0.19781 -3.00557,2.14007 -3.22209,2.82226 -0.18046,0.56856 -0.36823,0.59401 -1.65066,0.22373 z m 36.81252,-10.77715 c -1.69712,-0.79618 -2.57253,-2.14556 -2.70102,-4.1634 -0.0912,-1.43271 -0.009,-1.8461 0.55886,-2.81535 0.98625,-1.68293 2.43556,-2.40805 4.54457,-2.27376 2.05221,0.13068 3.38481,1.02849 4.17372,2.81196 0.97473,2.20353 0.10302,5.03463 -1.91773,6.22832 -1.23648,0.7304 -3.34876,0.82664 -4.6584,0.21223 z m 3.42166,-0.42267 c 1.86954,-0.66676 2.87086,-2.05895 2.87086,-3.99149 0,-2.64017 -2.02266,-4.53872 -4.57422,-4.29355 -1.56394,0.15028 -2.52123,0.78456 -3.33688,2.21095 -0.99905,1.74712 -0.64972,3.79684 0.89235,5.23587 1.23161,1.14933 2.5363,1.41298 4.14789,0.83822 z m -3.25866,-4.11459 v -3.175 h 1.04111 c 1.16836,0 2.41867,0.40291 2.71977,0.87645 0.38154,0.60004 0.20479,1.87085 -0.34101,2.45183 l -0.54888,0.58426 0.54888,1.0759 c 0.67412,1.32139 0.67484,1.36156 0.0242,1.36156 -0.36387,0 -0.73018,-0.40549 -1.19508,-1.32292 -0.3687,-0.7276 -0.78743,-1.32291 -0.9305,-1.32291 -0.14307,0 -0.26012,0.59531 -0.26012,1.32291 0,1.14653 -0.0706,1.32292 -0.52917,1.32292 -0.49977,0 -0.52917,-0.17639 -0.52917,-3.175 z m 2.39865,-0.53848 c 1.03272,-0.55269 0.49158,-1.57819 -0.83279,-1.57819 -0.40364,0 -0.50752,0.18955 -0.50752,0.92605 0,0.99197 0.36945,1.17173 1.34031,0.65214 z"
         id="path11" /><path
         style="fill:#020202"
         d="m 48.155871,186.0357 v -39.55521 h 62.044789 62.04479 v 39.55521 39.55521 H 110.20066 48.155871 Z m 17.859374,26.79677 c 1.090512,-0.55807 2.778125,-2.5062 2.778125,-3.20698 0,-0.13794 -2.163402,-1.02567 -2.224601,-0.91284 -0.02304,0.0425 -0.212324,0.4148 -0.420639,0.82739 -0.775112,1.53522 -2.857326,1.95506 -4.179308,0.84269 -1.119234,-0.94178 -1.457735,-1.96293 -1.327691,-4.00523 0.103363,-1.62328 0.18555,-1.82382 1.085441,-2.64851 1.232586,-1.12958 2.429097,-1.19834 3.606915,-0.20727 0.447727,0.37674 0.81405,0.86624 0.81405,1.08778 0,0.32148 0.200303,0.36599 0.992187,0.22047 1.372754,-0.25225 1.508335,-0.47128 0.980402,-1.58382 -0.739015,-1.55736 -2.013352,-2.35445 -3.962554,-2.47857 -2.208828,-0.14064 -3.340396,0.27613 -4.583252,1.68809 -1.281866,1.45628 -1.744071,3.02341 -1.561721,5.29512 0.226358,2.81994 1.78593,4.80807 4.256211,5.42577 0.957827,0.2395 2.96654,0.055 3.746435,-0.34409 z m 12.567708,-0.18151 c 2.227126,-1.1258 3.511865,-4.25148 2.937093,-7.14574 -0.581529,-2.92829 -2.716065,-4.78514 -5.500747,-4.78514 -3.346555,0 -5.517517,2.08192 -5.836241,5.59687 -0.187503,2.06781 0.308697,3.67901 1.576628,5.11946 1.702251,1.93386 4.437205,2.42068 6.823267,1.21455 z M 74.2868,210.62465 c -2.321079,-1.2594 -2.266027,-6.18674 0.08269,-7.40131 3.329184,-1.72159 6.352521,2.87419 4.197743,6.38099 -0.856482,1.39389 -2.75702,1.84692 -4.280436,1.02032 z m 11.536312,-2.03322 c -0.09344,-2.36471 -0.10648,-4.23995 -0.02898,-4.16719 0.0775,0.0728 0.574874,1.79917 1.105281,3.83646 0.530408,2.03729 1.027338,3.91253 1.104289,4.16719 0.104234,0.34495 0.42211,0.46293 1.246562,0.46268 l 1.106649,-3.4e-4 1.101028,-4.16685 1.101028,-4.16685 0.02345,4.16719 0.02345,4.16719 h 1.058333 1.058333 v -5.96575 -5.96575 l -1.64107,0.0788 -1.64107,0.0788 -1.087314,4.19723 -1.087313,4.19722 -0.559118,-2.08056 c -0.307515,-1.1443 -0.819191,-3.06282 -1.13706,-4.26337 l -0.577942,-2.18281 h -1.690806 -1.690807 v 5.95312 5.95313 h 1.191482 1.191481 z m 14.720258,2.3151 v -1.98437 l 1.78594,-4.1e-4 c 2.14128,-4.9e-4 3.36236,-0.5323 4.25162,-1.85167 0.51272,-0.76072 0.60409,-1.176 0.51177,-2.32608 -0.23105,-2.87808 -1.62534,-3.75833 -5.95402,-3.75893 l -2.976561,-4.1e-4 v 5.95312 5.95313 h 1.190625 1.190626 z m 0,-5.82083 v -1.98437 h 1.4726 c 1.79626,0 2.40274,0.29532 2.61786,1.27475 0.37148,1.69132 -0.77175,2.694 -3.07161,2.694 h -1.01885 z m 9.39408,6.74688 0.31042,-0.92605 h 2.20175 2.20175 l 0.31042,0.92605 c 0.28895,0.86198 0.39582,0.93162 1.54496,1.00668 0.67899,0.0444 1.23454,0.0412 1.23454,-0.007 0,-0.12479 -3.60456,-10.82323 -3.83998,-11.39718 -0.15792,-0.38501 -0.44724,-0.46067 -1.51763,-0.39687 l -1.32251,0.0788 -1.95161,5.65532 c -1.07338,3.11043 -1.95161,5.76609 -1.95161,5.90148 0,0.13538 0.55554,0.20986 1.23454,0.16551 1.14914,-0.0751 1.25601,-0.1447 1.54496,-1.00668 z m 1.33775,-4.43177 c 0.21327,-0.69123 0.51937,-1.76279 0.68021,-2.38125 0.16085,-0.61847 0.38324,-1.12448 0.49421,-1.12448 0.11097,0 0.33336,0.50601 0.49421,1.12448 0.16084,0.61846 0.46694,1.69002 0.68021,2.38125 l 0.38777,1.25677 h -1.56219 -1.56219 z m 11.22859,0.59531 v -4.89479 h 1.5875 1.5875 v -1.05834 -1.05833 h -4.36563 -4.36562 v 1.05833 1.05834 h 1.5875 1.5875 v 4.89479 4.89479 h 1.19062 1.19063 z m 7.14375,-1.05834 v -5.95312 h -1.19063 -1.19062 v 5.95312 5.95313 h 1.19062 1.19063 z m 11.36654,5.52039 c 0.99375,-0.58702 1.59824,-1.69051 1.59705,-2.91538 -0.001,-1.19161 -0.78444,-2.61502 -1.57753,-2.86674 -0.54868,-0.17414 -0.54717,-0.18417 0.1042,-0.69654 1.36706,-1.07534 1.10045,-3.52676 -0.48897,-4.49599 -0.68444,-0.41737 -1.35469,-0.49704 -4.18827,-0.49787 l -3.37344,-9.9e-4 v 5.95312 5.95313 h 3.5972 c 2.85501,0 3.74834,-0.0893 4.32976,-0.43274 z m -5.61186,-1.57097 c -0.10914,-0.11063 -0.19843,-0.89568 -0.19843,-1.74455 v -1.54341 h 1.8164 c 2.04744,0 3.21068,0.61519 3.21068,1.69799 0,1.04506 -0.91156,1.58386 -2.86371,1.69266 -0.97157,0.0541 -1.8558,0.008 -1.96494,-0.10269 z m -0.19843,-6.59525 v -1.45521 h 1.44275 c 2.26147,0 3.36083,0.74767 2.89278,1.96737 -0.24162,0.62967 -1.2045,0.94305 -2.89755,0.94305 h -1.43798 z m 17.19791,7.54063 v -1.05834 h -2.38125 -2.38125 v -4.89479 -4.89479 h -1.19062 -1.19063 v 5.95312 5.95313 h 3.57188 3.57187 z m 10.31875,0 v -1.05834 h -3.30729 -3.30729 v -1.45521 -1.4552 h 2.91041 2.91042 v -1.05834 -1.05833 h -2.91042 -2.91041 v -1.32292 -1.32291 h 3.175 3.175 v -1.05834 -1.05833 h -4.36563 -4.36562 v 5.95312 5.95313 h 4.49791 4.49792 z M 86.822798,179.95029 c 4.043981,-5.23875 7.813245,-9.95739 8.37614,-10.48587 1.053111,-0.98871 2.758789,-1.55268 4.695996,-1.55268 0.736626,0 0.913016,-0.10223 0.913016,-0.52916 0,-0.51634 -0.17639,-0.52917 -7.276039,-0.52917 -7.099652,0 -7.276041,0.0128 -7.276041,0.52917 0,0.47543 0.181366,0.53068 1.785937,0.5441 3.238339,0.0271 4.442499,0.90414 3.40832,2.4825 -0.783923,1.19642 -8.929036,11.65887 -9.132977,11.73137 -0.113864,0.0405 -2.496723,-2.72882 -5.295242,-6.154 -6.378942,-7.80736 -6.40799,-7.95831 -1.547809,-8.0435 1.599114,-0.028 1.785938,-0.0867 1.785938,-0.56047 0,-0.52087 -0.176389,-0.52917 -11.244792,-0.52917 -10.77533,0 -11.244791,0.0205 -11.244791,0.49079 0,0.41597 0.279348,0.51421 1.832236,0.6444 3.115467,0.26119 2.3689,-0.43297 13.377951,12.43896 7.432344,8.69 7.921259,9.204 8.682645,9.12813 0.719361,-0.0717 1.603826,-1.11288 8.159512,-9.6054 z m 67.960152,8.33437 v -0.79375 h -2.12516 c -2.32509,0 -3.74954,-0.43481 -4.20354,-1.28312 -0.189,-0.35316 -0.28588,-3.63986 -0.28588,-9.69873 v -9.16456 l 1.38906,0.14157 c 0.76398,0.0779 2.14362,0.21258 3.06585,0.29938 3.88792,0.36591 6.76544,1.95848 7.83858,4.33826 0.42644,0.94568 0.59489,1.0797 1.35712,1.0797 0.47863,0 0.9505,-0.12986 1.04859,-0.28857 0.0981,-0.15872 0.0931,-1.76606 -0.011,-3.57188 l -0.18937,-3.2833 h -14.79003 -14.79002 v 0.83156 0.83155 l 2.11998,-0.1453 2.11998,-0.14531 -0.0695,9.41932 -0.0695,9.41932 -0.86933,0.50763 c -0.59187,0.34561 -1.58414,0.55223 -3.10886,0.64735 l -2.23952,0.13972 v 0.75645 0.75646 h 11.90625 11.90625 z m -59.218412,-0.13229 c 0.98387,-0.82787 2.124614,-0.84879 6.301752,-0.11554 4.01133,0.70414 13.67636,0.98211 18.1435,0.52181 5.52491,-0.56929 9.10494,-1.72871 12.11646,-3.92398 1.93668,-1.41176 2.81295,-2.76383 2.81295,-4.34034 0,-1.58447 -0.43455,-2.47148 -1.82713,-3.7296 -2.24659,-2.02966 -4.97951,-3.05445 -13.25412,-4.97001 -8.17612,-1.89275 -13.56025,-3.32256 -14.9221,-3.96271 -2.70948,-1.2736 -2.79185,-3.9334 -0.16335,-5.27436 4.8671,-2.48301 14.28457,-1.84193 20.03426,1.3638 0.84342,0.47024 2.41013,1.72449 3.48159,2.78723 1.74866,1.73442 2.05339,1.93224 2.97656,1.93224 h 1.02846 v -4.36562 -4.36563 h -1.21858 c -0.9138,0 -1.41518,0.16544 -2.00467,0.66146 -0.97434,0.81985 -1.80179,0.83462 -6.43404,0.11484 -4.44325,-0.69041 -12.79004,-0.96121 -16.4593,-0.534 -5.30286,0.61741 -8.972221,2.06587 -11.439274,4.51557 l -1.470178,1.45984 4.101041,0.13229 4.101041,0.13229 0.0795,1.08678 0.0795,1.08677 -2.058815,0.18656 c -2.340211,0.21207 -3.38229,0.62481 -4.478553,1.77386 l -0.765411,0.80227 0.661458,0.54883 c 0.990436,0.82178 4.600761,2.44818 7.143751,3.21814 1.23693,0.37451 5.52318,1.45794 9.525,2.40761 9.6455,2.28896 10.60334,2.60739 11.97789,3.98194 0.83401,0.83401 0.96464,2.15051 0.31218,3.14628 -0.68709,1.04864 -2.43448,2.01037 -4.68812,2.58027 -1.89982,0.48042 -2.68742,0.52621 -6.92334,0.40252 -3.74118,-0.10925 -5.23954,-0.26379 -6.89632,-0.71129 -4.4745,-1.20856 -8.003072,-3.57694 -9.789582,-6.57076 -0.815311,-1.3663 -1.323397,-1.63665 -3.075781,-1.63665 H 91.81212 v 5.15937 5.15938 h 1.48316 c 1.196022,0 1.635347,-0.12806 2.269258,-0.66146 z m 29.714382,-16.52703 c 0.21652,-0.68219 2.43393,-2.62445 3.22209,-2.82226 0.83,-0.20832 0.78291,-0.44199 -0.33947,-1.68432 l -0.95683,-1.0591 h -2.21817 -2.21817 v 2.77056 2.77056 l 0.85989,0.24829 c 1.28243,0.37028 1.4702,0.34483 1.65066,-0.22373 z m 39.82026,-10.76565 c 2.02075,-1.19369 2.89246,-4.02479 1.91773,-6.22832 -0.78891,-1.78347 -2.12151,-2.68128 -4.17372,-2.81196 -2.10901,-0.13429 -3.55832,0.59083 -4.54457,2.27376 -0.56803,0.96925 -0.65008,1.38264 -0.55886,2.81535 0.12849,2.01784 1.0039,3.36722 2.70102,4.1634 1.30964,0.61441 3.42192,0.51817 4.6584,-0.21223 z m -3.83394,-0.10856 c -1.65229,-0.48652 -3.0475,-2.4492 -3.03835,-4.27412 0.005,-1.0548 0.93119,-2.74619 1.89416,-3.46015 0.39095,-0.28985 1.30345,-0.58206 2.03803,-0.65265 2.55156,-0.24517 4.57422,1.65338 4.57422,4.29355 0,1.93254 -1.00132,3.32473 -2.87086,3.99149 -1.15691,0.4126 -1.49668,0.42593 -2.5972,0.10188 z m 0.39688,-2.36439 c 0,-0.7276 0.11705,-1.32291 0.26012,-1.32291 0.14307,0 0.5618,0.59531 0.9305,1.32291 0.4649,0.91743 0.83121,1.32292 1.19508,1.32292 0.65067,0 0.64995,-0.0402 -0.0242,-1.36156 l -0.54888,-1.0759 0.54888,-0.58426 c 0.5458,-0.58098 0.72255,-1.85179 0.34101,-2.45183 -0.3011,-0.47354 -1.55141,-0.87645 -2.71977,-0.87645 h -1.04111 v 3.175 c 0,2.99861 0.0294,3.175 0.52917,3.175 0.45861,0 0.52917,-0.17639 0.52917,-1.32292 z m 0,-3.0427 c 0,-0.7365 0.10388,-0.92605 0.50752,-0.92605 1.32437,0 1.86551,1.0255 0.83279,1.57819 -0.97086,0.51959 -1.34031,0.33983 -1.34031,-0.65214 z"
         id="path10" /></g></g></svg>
